Results
version=1
nRows=4
nColumns=85
inDegrees=yes
endheader
time	thorax_sagittal	thorax_frontal	thorax_horizontal	thorax_transx	thorax_transy	thorax_transz	cervix_sagittal	cervix_frontal	cervix_horizontal	caput_sagittal	caput_frontal	caput_horizontal	abdomen_sagittal	abdomen_frontal	abdomen_horizontal	cauda_sagittal	cauda_frontal	cauda_horizontal	left_r_m_superioris_sagittal	left_r_m_superioris_frontal	left_r_m_superioris_horizontal	left_r_m_superioris_transx	left_r_m_superioris_transy	left_r_m_superioris_transz	left_r_deltoidea_sagittal	left_r_deltoidea_frontal	left_r_deltoidea_horizontal	left_r_cubitalis_sagittal	left_r_cubitalis_frontal	left_r_cubitalis_horizontal	left_r_carpalis_sagittal	left_r_carpalis_frontal	left_r_carpalis_horizontal	left_r_forepaw_sagittal	left_r_forepaw_frontal	left_r_forepaw_horizontal	right_r_m_superioris_sagittal	right_r_m_superioris_frontal	right_r_m_superioris_horizontal	right_r_m_superioris_transx	right_r_m_superioris_transy	right_r_m_superioris_transz	right_r_deltoidea_sagittal	right_r_deltoidea_frontal	right_r_deltoidea_horizontal	right_r_cubitalis_sagittal	right_r_cubitalis_frontal	right_r_cubitalis_horizontal	right_r_carpalis_sagittal	right_r_carpalis_frontal	right_r_carpalis_horizontal	right_r_forepaw_sagittal	right_r_forepaw_frontal	right_r_forepaw_horizontal	m_inferioris_sagittal	m_inferioris_frontal	m_inferioris_horizontal	m_inferioris_transx	m_inferioris_transy	m_inferioris_transz	left_r_coxae_sagittal	left_r_coxae_frontal	left_r_coxae_horizontal	left_r_genus_sagittal	left_r_genus_frontal	left_r_genus_horizontal	left_r_talocruralis_sagittal	left_r_talocruralis_frontal	left_r_talocruralis_horizontal	left_r_hindpaw_sagittal	left_r_hindpaw_frontal	left_r_hindpaw_horizontal	right_r_coxae_sagittal	right_r_coxae_frontal	right_r_coxae_horizontal	right_r_genus_sagittal	right_r_genus_frontal	right_r_genus_horizontal	right_r_talocruralis_sagittal	right_r_talocruralis_frontal	right_r_talocruralis_horizontal	right_r_hindpaw_sagittal	right_r_hindpaw_frontal	right_r_hindpaw_horizontal
      6.03800000	    -93.83293454	     14.12006315	    -18.78371126	     -0.98931309	      0.26733910	     -3.57905818	    -21.40712444	      5.84201704	      1.26025572	     14.08121118	     -0.92131369	    -17.64514701	     22.43407101	    -10.36181201	     10.33161218	     -0.85073164	    -10.68696499	      4.98291747	    -36.47934202	    -37.76479925	     -8.89033729	      0.03936061	     -0.17862415	      0.11138852	    104.24306594	     -4.14652465	     -9.83918956	    -69.09172065	     38.73436008	      8.81249038	    -43.82311801	      1.07732779	      0.80000000	      0.00000000	      0.00000000	      0.00000000	    -33.10443430	     27.89632384	     12.59652926	     -0.02447139	     -0.17785183	      0.09841165	     84.00876186	     -1.00942094	     35.13373619	   -108.13204939	    -26.53775441	     15.45683180	     33.45906892	    -51.22798055	      0.80000000	      0.00000000	      0.00000000	      0.00000000	     28.18730725	     15.56667922	     -4.73575427	      0.00917470	     -0.06327968	      0.02506941	    -76.06794485	     -9.79350588	     -2.90061303	     92.85962165	      7.76853552	     -8.93144973	    -64.29829102	     12.58567378	      2.30000000	      0.00000000	      0.00000000	      0.00000000	    -99.53164332	      3.91106354	      0.08051430	    101.32920598	     -5.33036209	      3.54218387	    -66.61820030	     -1.51538395	      2.30000000	      0.00000000	      0.00000000	      0.00000000
      6.05466667	    -94.52840527	     13.94019912	    -17.73163458	     -0.99823979	      0.27005646	     -3.56560679	    -20.62275786	      6.71680226	      1.81332327	     13.43154048	     -0.69055611	    -18.58500774	     21.90181714	    -10.76898501	      7.87291627	     -1.04796400	    -10.72855260	      5.58101840	    -33.66364859	    -38.05062878	     -8.27996825	      0.04050787	     -0.17975092	      0.11311874	    101.99445821	     -3.74539649	    -10.62237984	    -66.02785973	     37.98488181	      7.63176383	    -43.59127375	      2.82305493	      0.80000000	      0.00000000	      0.00000000	      0.00000000	    -32.90895379	     26.83332590	      9.95226517	     -0.02360687	     -0.17849385	      0.09798034	     82.41266003	     -3.57865654	     34.37863816	   -108.96105103	    -24.97588114	     13.66005763	     26.21170753	    -41.54850246	      0.80000000	      0.00000000	      0.00000000	      0.00000000	     28.09590694	     15.81896780	     -4.23268639	      0.00954778	     -0.06393642	      0.02509648	    -72.87996321	    -10.09513162	     -3.29202919	     92.92502598	      7.38744992	     -8.89093000	    -63.54291805	     12.46059547	      2.30000000	      0.00000000	      0.00000000	      0.00000000	   -101.52965332	      2.85561568	      1.62942048	     98.28991788	     -3.81259511	      3.66472774	    -64.20890711	     -1.62949725	      2.30000000	      0.00000000	      0.00000000	      0.00000000
      6.07133333	    -95.58763432	     13.28958535	    -16.20485496	     -1.00577790	      0.27284476	     -3.55196944	    -19.51781141	      7.15146921	      1.65302320	     12.81296813	     -0.46853681	    -18.89071336	     21.33683776	    -11.02493025	      4.92140921	     -1.07202748	    -10.62681947	      5.99438907	    -31.76153199	    -38.33156161	     -7.66885145	      0.04057647	     -0.18062615	      0.11261701	    101.43431553	     -3.25951838	    -11.24340638	    -63.27388927	     37.00394195	      6.49756316	    -42.89368881	      4.49205596	      0.80000000	      0.00000000	      0.00000000	      0.00000000	    -33.02255395	     25.86623919	      7.98589632	     -0.02380133	     -0.17860372	      0.09759670	     80.87824420	     -5.34762617	     32.96451296	   -105.89447861	    -22.96849645	     10.45288807	     16.41628050	    -32.14018355	      0.80000000	      0.00000000	      0.00000000	      0.00000000	     28.16981369	     16.09509917	     -3.90385481	      0.01099500	     -0.06482741	      0.02538410	    -70.16545863	    -10.67275536	     -3.55750443	     93.16863027	      7.14088254	     -8.79896415	    -63.10960543	     12.31097631	      2.30000000	      0.00000000	      0.00000000	      0.00000000	   -102.61723451	      1.30053335	      3.12459635	     94.49743828	     -2.37476191	      3.53143793	    -62.01792150	     -1.46282098	      2.30000000	      0.00000000	      0.00000000	      0.00000000
      6.08800000	    -96.40292636	     12.14845595	    -14.07256056	     -1.01270991	      0.27635032	     -3.53900053	    -18.94250914	      7.30623975	      0.44066031	     12.11855153	     -0.21246466	    -19.14852590	     19.81682829	    -11.46928842	      0.48229958	     -0.86054606	    -10.58273374	      6.47713352	    -30.45271842	    -37.42278083	     -7.17319743	      0.03993040	     -0.18144127	      0.11310011	     99.89787522	     -2.88713074	    -11.87844366	    -59.54676393	     35.78446598	      5.78849247	    -42.56067160	      5.56066483	      0.80000000	      0.00000000	      0.00000000	      0.00000000	    -33.61774701	     25.69222684	      5.72132196	     -0.02448051	     -0.17818071	      0.09788349	     80.22954751	     -7.33430787	     31.19608031	    -99.56038294	    -21.53112465	      8.55573584	      8.22418046	    -22.89236075	      0.80000000	      0.00000000	      0.00000000	      0.00000000	     28.48660352	     16.32856489	     -3.41836420	      0.01188088	     -0.06530714	      0.02502498	    -66.63582692	    -11.31946147	     -3.31497345	     92.40508118	      7.37018252	     -9.19973569	    -62.26754523	     12.66990350	      2.30000000	      0.00000000	      0.00000000	      0.00000000	   -103.57685240	     -0.14611385	      4.50135713	     91.42146399	     -1.02383886	      3.40163862	    -58.47030250	     -1.29046530	      2.30000000	      0.00000000	      0.00000000	      0.00000000
